<?xml version="1.0" encoding="UTF-8"?>
<svg id="uuid-32a297bc-45da-4b6c-b5e1-24e8810de1c9" data-name="レイヤー 1" xmlns="http://www.w3.org/2000/svg" viewBox="0 0 1345.8 270.6">
  <defs>
    <style>
      .uuid-fd81bf11-09ab-43d4-865e-f5338f8eafc1 {
        fill: #e0e0e0;
      }
    </style>
  </defs>
  <path class="uuid-fd81bf11-09ab-43d4-865e-f5338f8eafc1" d="M0,1.8V201.9H39V1.8H0Z"/>
  <path class="uuid-fd81bf11-09ab-43d4-865e-f5338f8eafc1" d="M162.6,125.4l34.2,76.5h18l66-129.9h-40.8l-34.2,75-34.8-75h-16.8l-34.8,75-34.2-75H44.4L110.4,201.9h18l34.2-76.5Z"/>
  <path class="uuid-fd81bf11-09ab-43d4-865e-f5338f8eafc1" d="M380.4,88.8c-12.3-19.2-31.8-21-41.7-21-38.4,0-64.5,30.6-64.5,69s26.4,69.3,66.3,69.3c9.3,0,26.7-2.1,39.9-21v16.8h36.6V72h-36.6v16.8Zm-32.4,11.4c21,0,36,15.9,36,36.6s-15,36.9-36,36.9-36-16.2-36-36.9,15-36.6,36-36.6Z"/>
  <path class="uuid-fd81bf11-09ab-43d4-865e-f5338f8eafc1" d="M567.9,75l43.8,126.9h29.4L715.2,1.8h-41.4l-48,136.2L579.6,0h-21.6l-48.9,138L464.4,1.8h-41.4l69.6,200.1h29.4l45.9-126.9Z"/>
  <path class="uuid-fd81bf11-09ab-43d4-865e-f5338f8eafc1" d="M796.8,88.8c-12.3-19.2-31.8-21-41.7-21-38.4,0-64.5,30.6-64.5,69s26.4,69.3,66.3,69.3c9.3,0,26.7-2.1,39.9-21v16.8h36.6V72h-36.6v16.8Zm-32.4,11.4c21,0,36,15.9,36,36.6s-15,36.9-36,36.9-36-16.2-36-36.9,15-36.6,36-36.6Z"/>
  <path class="uuid-fd81bf11-09ab-43d4-865e-f5338f8eafc1" d="M856.2,201.9h36.6v-62.4c0-9,.3-20.1,7.2-28.8,7.2-9,17.4-10.5,24.3-10.5,7.5,0,12.3,1.5,17.1,4.8l4.8-34.2c-4.2-1.5-9.3-3-15.6-3-8.7,0-15.9,2.1-21.6,5.7-2.7,1.5-10.5,6.9-16.2,18v-19.5h-36.6V201.9Z"/>
  <path class="uuid-fd81bf11-09ab-43d4-865e-f5338f8eafc1" d="M994.8,185.1c14.4,19.5,32.7,21,41.7,21,19.2,0,34.2-7.5,44.1-16.8,7.5-7.2,20.4-23.1,20.4-52.5,0-25.8-9.9-42-19.5-51.6-14.7-14.7-33-17.4-44.4-17.4-24,0-36.6,12.9-42.3,21v-16.8h-36.6v198.6h36.6v-85.5Zm32.4-84.9c8.7,0,18.3,3.3,24.9,9.3,7.2,6.9,11.1,17.7,11.1,27.3s-3.6,20.4-11.4,27.6c-4.8,4.5-12.6,9.3-24.6,9.3s-19.2-4.5-24-8.7c-7.2-6.3-12-16.2-12-28.2s4.2-21,12.3-27.9c6.6-6,14.1-8.7,23.7-8.7Z"/>
  <path class="uuid-fd81bf11-09ab-43d4-865e-f5338f8eafc1" d="M1211.1,160.2c-6,10.5-16.5,17.1-30.3,17.1s-22.2-6.9-26.1-12.3c-4.2-5.7-6.3-14.1-6.3-21.9h97.2v-3c0-14.1-1.8-34.5-15.6-51-9-10.8-24.3-21.3-50.7-21.3-15.6,0-33.6,3.3-48.9,18.3-9.3,9.3-19.8,25.2-19.8,51,0,20.4,6,37.2,20.4,50.7,12.9,12.3,28.8,18.3,49.8,18.3,45.3,0,60-30.9,63.9-40.5l-33.6-5.4Zm-61.5-40.5c3-17.4,17.1-26.1,30.6-26.1s27.9,8.4,30.9,26.1h-61.5Z"/>
  <path class="uuid-fd81bf11-09ab-43d4-865e-f5338f8eafc1" d="M1255.8,201.9h36.6v-62.4c0-9,.3-20.1,7.2-28.8,7.2-9,17.4-10.5,24.3-10.5,7.5,0,12.3,1.5,17.1,4.8l4.8-34.2c-4.2-1.5-9.3-3-15.6-3-8.7,0-15.9,2.1-21.6,5.7-2.7,1.5-10.5,6.9-16.2,18v-19.5h-36.6V201.9Z"/>
</svg>