<?xml version="1.0" encoding="UTF-8" standalone="no"?>
<svg
   xmlns:dc="http://purl.org/dc/elements/1.1/"
   xmlns:cc="http://creativecommons.org/ns#"
   xmlns:rdf="http://www.w3.org/1999/02/22-rdf-syntax-ns#"
   xmlns:svg="http://www.w3.org/2000/svg"
   xmlns="http://www.w3.org/2000/svg"
   xmlns:sodipodi="http://sodipodi.sourceforge.net/DTD/sodipodi-0.dtd"
   xmlns:inkscape="http://www.inkscape.org/namespaces/inkscape"
   width="19"
   height="19"
   version="1.1"
   xml:space="preserve"
   style="clip-rule:evenodd;fill-rule:evenodd;stroke-linejoin:round;stroke-miterlimit:2"
   id="svg12"
   sodipodi:docname="syncexpand.svg"
   inkscape:version="0.92.4 (5da689c313, 2019-01-14)"><metadata
   id="metadata18"><rdf:RDF><cc:Work
       rdf:about=""><dc:format>image/svg+xml</dc:format><dc:type
         rdf:resource="http://purl.org/dc/dcmitype/StillImage" /><dc:title></dc:title></cc:Work></rdf:RDF></metadata><defs
   id="defs16">
        
    
            
            
        
                
            </defs><sodipodi:namedview
   pagecolor="#ffffff"
   bordercolor="#666666"
   borderopacity="1"
   objecttolerance="10"
   gridtolerance="10"
   guidetolerance="10"
   inkscape:pageopacity="0"
   inkscape:pageshadow="2"
   inkscape:window-width="1377"
   inkscape:window-height="767"
   id="namedview14"
   showgrid="true"
   inkscape:zoom="16"
   inkscape:cx="-6.2796923"
   inkscape:cy="7.2117967"
   inkscape:window-x="174"
   inkscape:window-y="90"
   inkscape:window-maximized="0"
   inkscape:current-layer="svg12"><inkscape:grid
     type="xygrid"
     id="grid828" /></sodipodi:namedview>
    <path
   sodipodi:nodetypes="scsccccsssssssssccccssssscss"
   inkscape:connector-curvature="0"
   id="path5"
   style="fill:#e6e6e6;fill-opacity:1;fill-rule:nonzero"
   d="m 18,15.033 c 0,0.522 -0.207,1.022 -0.576,1.391 C 17.054,16.792 16.555,17 16.032,17 H 8 v 2 L 3,15 H 14.968 C 15.538,15 16,14.538 16,13.969 v -1.97 C 16,11.447 16.447,11 16.999,11 h 0.002 C 17.553,11 18,11.447 18,11.999 Z M 1,3.976 C 1,3.453 1.208,2.95 1.579,2.579 1.95,2.208 2.453,2 2.976,2 H 11 V 0 l 5,4 H 3.994 C 3.444,4 3,4.446 3,4.994 V 8.001 C 3,8.266 2.894,8.521 2.707,8.708 2.52,8.895 2.266,9 2.001,9 H 1.999 C 1.734,9 1.48,8.895 1.292,8.708 1.105,8.521 1,8.266 1,8.001 Z" />
<path
   style="opacity:1;vector-effect:none;fill:#0000ff;fill-opacity:0.78431373;stroke:#e6e6e6;stroke-width:1;stroke-linecap:butt;stroke-linejoin:round;stroke-miterlimit:2;stroke-dasharray:none;stroke-dashoffset:0;stroke-opacity:1"
   d="M 10.5,5.4999774 V 13.500022 L 17.500062,9.4999998 Z"
   id="path832"
   inkscape:connector-curvature="0"
   sodipodi:nodetypes="cccc" /><path
   style="clip-rule:evenodd;fill:#ff0000;fill-opacity:0.78431374;fill-rule:evenodd;stroke:#e6e6e6;stroke-width:1;stroke-linecap:butt;stroke-linejoin:round;stroke-miterlimit:2;stroke-dasharray:none;stroke-opacity:1"
   d="m 2.5,5.499986 v 8.000045 L 9.5000619,9.5000079 Z"
   id="path832-6"
   inkscape:connector-curvature="0"
   sodipodi:nodetypes="cccc" /></svg>