<?xml version="1.0" encoding="UTF-8" standalone="no"?>
<!-- Generator: Adobe Illustrator 21.0.2, SVG Export Plug-In . SVG Version: 6.00 Build 0)  -->

<svg
   xmlns:dc="http://purl.org/dc/elements/1.1/"
   xmlns:cc="http://creativecommons.org/ns#"
   xmlns:rdf="http://www.w3.org/1999/02/22-rdf-syntax-ns#"
   xmlns:svg="http://www.w3.org/2000/svg"
   xmlns="http://www.w3.org/2000/svg"
   xmlns:sodipodi="http://sodipodi.sourceforge.net/DTD/sodipodi-0.dtd"
   xmlns:inkscape="http://www.inkscape.org/namespaces/inkscape"
   version="1.1"
   id="svg2"
   inkscape:version="0.92.4 (5da689c313, 2019-01-14)"
   sodipodi:docname="schematic_thumbtoggle_on.svg"
   x="0px"
   y="0px"
   viewBox="0 0 16 16"
   style="enable-background:new 0 0 16 16;"
   xml:space="preserve"><metadata
   id="metadata14"><rdf:RDF><cc:Work
       rdf:about=""><dc:format>image/svg+xml</dc:format><dc:type
         rdf:resource="http://purl.org/dc/dcmitype/StillImage" /></cc:Work></rdf:RDF></metadata><defs
   id="defs12" /><sodipodi:namedview
   pagecolor="#ffffff"
   bordercolor="#666666"
   borderopacity="1"
   objecttolerance="10"
   gridtolerance="10"
   guidetolerance="10"
   inkscape:pageopacity="0"
   inkscape:pageshadow="2"
   inkscape:window-width="1260"
   inkscape:window-height="783"
   id="namedview10"
   showgrid="true"
   inkscape:zoom="14.75"
   inkscape:cx="8"
   inkscape:cy="8"
   inkscape:window-x="0"
   inkscape:window-y="0"
   inkscape:window-maximized="0"
   inkscape:current-layer="svg2"><inkscape:grid
     type="xygrid"
     id="grid3719" /></sodipodi:namedview>
<style
   type="text/css"
   id="style2">
	.st0{fill:none;}
	.st1{opacity:0.502;fill:#FFFFFF;}
	.st2{fill:#2E2E2E;}
</style>
<rect
   id="rect5"
   y="-16"
   class="st0"
   width="16"
   height="16"
   x="0"
   transform="scale(1,-1)"
   style="fill:none" />
<path
   class="st1"
   d="M 1,0.5 C 0.8,0.5 0.7,0.6 0.6,0.7 0.5,0.8 0.5,1 0.6,1.2 l 7,14 c 0,0.2 0.2,0.3 0.4,0.3 0.2,0 0.4,-0.1 0.4,-0.3 l 7,-14 C 15.5,1 15.5,0.9 15.4,0.7 15.3,0.6 15.1,0.5 15,0.5 Z"
   id="path5"
   inkscape:connector-curvature="0"
   style="opacity:0.50199998;fill:#ffffff" />
<path
   class="st2"
   d="M 8,15 15,1 H 1 l 7,14 m 0,1 C 7.6,16 7.3,15.8 7.1,15.4 l -7,-14 C -0.1,1.1 0,0.7 0.1,0.4 0.2,0.1 0.7,0 1,0 h 14 c 0.3,0 0.7,0.2 0.9,0.5 0.2,0.3 0.2,0.7 0,1 l -7,14 C 8.7,15.8 8.4,16 8,16 Z"
   id="path7"
   inkscape:connector-curvature="0"
   style="fill:#2e2e2e" />
</svg>