<?xml version="1.0" encoding="UTF-8" standalone="no"?>
<svg
   width="20px"
   height="20px"
   version="1.1"
   xml:space="preserve"
   style="fill-rule:evenodd;clip-rule:evenodd;stroke-linejoin:round;stroke-miterlimit:2;"
   id="svg8"
   sodipodi:docname="tool_square_rollover.svg"
   inkscape:version="1.2.1 (9c6d41e410, 2022-07-14)"
   xmlns:inkscape="http://www.inkscape.org/namespaces/inkscape"
   xmlns:sodipodi="http://sodipodi.sourceforge.net/DTD/sodipodi-0.dtd"
   xmlns="http://www.w3.org/2000/svg"
   xmlns:svg="http://www.w3.org/2000/svg"><defs
   id="defs12" /><sodipodi:namedview
   id="namedview10"
   pagecolor="#ffffff"
   bordercolor="#000000"
   borderopacity="0.25"
   inkscape:showpageshadow="2"
   inkscape:pageopacity="0.0"
   inkscape:pagecheckerboard="0"
   inkscape:deskcolor="#d1d1d1"
   showgrid="true"
   inkscape:zoom="25.675"
   inkscape:cx="-4.1674781"
   inkscape:cy="12.775073"
   inkscape:window-width="2560"
   inkscape:window-height="1377"
   inkscape:window-x="-8"
   inkscape:window-y="-8"
   inkscape:window-maximized="1"
   inkscape:current-layer="svg8"><inkscape:grid
     type="xygrid"
     id="grid118" /></sodipodi:namedview>
    
    <g
   transform="matrix(0.765355,-0.329661,0.388389,0.9017,-22.4415,-9.0896)"
   id="g6">
        
    </g>
<path
   id="path20122"
   style="color:#000000;clip-rule:nonzero;fill:#e6e6e6;fill-rule:nonzero;stroke-linejoin:miter;stroke-miterlimit:1.6;-inkscape-stroke:none"
   d="M 8.9726562 4.78125 A 1.0001 1.0001 0 0 1 9 5 L 9 6 A 1.0001 1.0001 0 0 1 8.9570312 6.28125 L 15.492188 6.28125 L 15.492188 15.453125 L 6.2421875 15.453125 L 6.2421875 8.96875 A 1.0001 1.0001 0 0 1 6 9 L 5 9 A 1.0001 1.0001 0 0 1 4.7421875 8.9667969 L 4.7421875 16.953125 L 16.992188 16.953125 L 16.992188 4.78125 L 8.9726562 4.78125 z " /><g
   id="rect18529-2-5"
   style="fill:#e6e6e6;stroke:none;fill-opacity:1"><g
     id="path18605-1"
     style="fill:#e6e6e6;stroke:none;fill-opacity:1"><path
       style="color:#000000;clip-rule:nonzero;fill:#e6e6e6;fill-rule:nonzero;stroke:none;stroke-width:2;stroke-linejoin:miter;stroke-miterlimit:1.6;-inkscape-stroke:none;fill-opacity:1"
       d="M 5,3 V 5.0000001 H 3 v 1 h 2 v 2 h 1 v -2 h 2 v -1 H 6 V 3 Z"
       id="path20111" /></g></g></svg>
